Coordinates
version=1
nRows=30
nColumns=30
inDegrees=yes

Units are S.I. units (second, meters, Newtons, ...)
Angles are in degrees.

endheader
time	floatyaw	floatroll	floatpitch	floatx	floaty	floatz	pro_sup_l	deviation_l	flexion_l	cmc_flexion_l	cmc_abduction_l	mp_flexion_l	ip_flexion_l	2mcp_flexion_l	2mcp_abduction_l	2pm_flexion_l	2md_flexion_l	3mcp_flexion_l	3mcp_abduction_l	3pm_flexion_l	3md_flexion_l	4mcp_flexion_l	4mcp_abduction_l	4pm_flexion_l	4md_flexion_l	5mcp_flexion_l	5mcp_abduction_l	5pm_flexion_l	5md_flexion_l
0.005000	-4.179282	-4.936475	96.455532	0.054474	-0.162135	0.053095	23.112750	3.455465	-5.516095	0.240874	31.888556	-33.391190	-52.242006	57.917019	6.242561	74.739531	45.817475	58.299410	6.258751	74.858615	48.210914	53.771016	-6.337643	81.274323	56.906699	31.718831	-6.140750	85.453242	47.742026
0.015000	-4.179282	-4.936475	96.455532	0.054996	-0.160139	0.052856	22.301289	4.376671	-5.658044	0.059484	32.183958	-33.422790	-52.465058	58.303884	6.192253	74.538237	45.897282	59.008119	6.242711	74.815478	48.173125	54.605260	-6.308440	81.216797	57.002949	32.567824	-6.206283	85.678422	47.779792
0.025000	-4.179282	-4.936475	96.455532	0.055580	-0.157250	0.052737	21.821428	5.228807	-5.819980	-0.078547	32.601176	-33.491949	-52.834723	58.684803	6.126569	74.409721	45.969588	59.665181	6.201123	74.789515	48.139187	55.369467	-6.284865	81.116452	57.103432	33.571520	-6.256109	85.788908	47.737257
0.035000	-4.179282	-4.936475	96.455532	0.056207	-0.153767	0.052704	21.787859	5.937740	-5.948627	-0.138414	33.138660	-33.602435	-53.341210	59.093892	6.038303	74.259661	45.995914	60.279717	6.133944	74.751559	48.075435	56.069211	-6.269930	80.986696	57.192624	34.668682	-6.262743	85.749423	47.647407
0.045000	-4.179282	-4.936475	96.455532	0.056841	-0.150231	0.052698	22.161461	6.468171	-6.008026	-0.118828	33.722798	-33.727997	-53.892122	59.533466	5.929846	74.000903	45.939695	60.829539	6.054325	74.658456	47.943280	56.667038	-6.264675	80.829763	57.223318	35.732774	-6.209563	85.578402	47.565963
0.055000	-4.179282	-4.936475	96.455532	0.057421	-0.147274	0.052668	22.719392	6.837810	-6.002580	-0.052843	34.226550	-33.828827	-54.346037	59.966192	5.811087	73.604529	45.792092	61.272889	5.983535	74.485021	47.726654	57.110189	-6.267197	80.643487	57.143972	36.620409	-6.099917	85.348036	47.552933
0.065000	-4.179282	-4.936475	96.455532	0.057874	-0.145410	0.052594	23.143047	7.110813	-5.969260	0.013540	34.513340	-33.871174	-54.571563	60.325563	5.694796	73.115624	45.579738	61.567657	5.941383	74.238723	47.441133	57.360063	-6.273101	80.428487	56.925281	37.226582	-5.958222	85.147587	47.645499
0.075000	-4.179282	-4.936475	96.455532	0.058139	-0.144830	0.052478	23.173892	7.366838	-5.946251	0.045440	34.494449	-33.838878	-54.500768	60.543648	5.592721	72.627059	45.350830	61.690629	5.937740	73.952957	47.124002	57.411428	-6.277091	80.193241	56.573855	37.521447	-5.821527	85.031184	47.836777
0.085000	-4.179282	-4.936475	96.455532	0.058185	-0.145350	0.052330	22.738988	7.661269	-5.943340	0.031433	34.169835	-33.732706	-54.149490	60.581935	5.513137	72.228837	45.149765	61.648327	5.969540	73.666700	46.814701	57.294737	-6.274874	79.953695	56.128128	37.552190	-5.724567	84.986565	48.075662
0.095000	-4.179282	-4.936475	96.455532	0.058032	-0.146506	0.052156	21.970191	8.001080	-5.936105	-0.018002	33.625616	-33.562944	-53.599396	60.448314	5.459160	71.965241	44.997434	61.475477	6.023853	73.405234	46.538634	57.063519	-6.264539	79.726360	55.641741	37.413516	-5.685604	84.947299	48.290392
0.105000	-4.179282	-4.936475	96.455532	0.057744	-0.147769	0.051957	21.115786	8.349645	-5.884609	-0.080882	32.989685	-33.342858	-52.957822	60.191984	5.428016	71.823540	44.888157	61.223542	6.084344	73.173208	46.302351	56.775772	-6.246882	79.519224	55.165064	37.206034	-5.700518	84.837599	48.421981
0.115000	-4.179282	-4.936475	96.455532	0.057406	-0.148739	0.051737	20.409371	8.653415	-5.758815	-0.137151	32.374097	-33.085827	-52.317010	59.880789	5.412280	71.753950	44.801291	60.945320	6.137563	72.961107	46.099415	56.478771	-6.224632	79.327889	54.733048	37.003011	-5.747695	84.616409	48.447576
0.125000	-4.179282	-4.936475	96.455532	0.057096	-0.149252	0.051502	19.972882	8.871484	-5.552508	-0.179746	31.835591	-32.804640	-51.727397	59.573382	5.402993	71.701842	44.716957	60.681158	6.176608	72.757740	45.920475	56.201554	-6.200932	79.140705	54.361349	36.835778	-5.799917	84.293699	48.382655
0.135000	-4.179282	-4.936475	96.455532	0.056859	-0.149363	0.051259	19.793892	8.992133	-5.280769	-0.218152	31.368292	-32.511327	-51.190618	59.298836	5.392947	71.631978	44.626269	60.450360	6.201479	72.560160	45.761101	55.953951	-6.177852	78.949650	54.048655	36.697072	-5.836191	83.916098	48.265708
0.145000	-4.179282	-4.936475	96.455532	0.056697	-0.149247	0.051011	19.768430	9.031999	-4.968646	-0.271806	30.924262	-32.217294	-50.671997	59.051099	5.378346	71.536245	44.533152	60.249898	6.216862	72.376838	45.624469	55.729615	-6.155742	78.759487	53.783068	36.555682	-5.847841	83.538394	48.137816
0.155000	-4.179282	-4.936475	96.455532	0.056578	-0.149099	0.050757	19.771305	9.023477	-4.641510	-0.356418	30.447784	-31.933673	-50.127180	58.798720	5.358515	71.428346	44.450580	60.061029	6.228802	72.224646	45.519493	55.512017	-6.133775	78.589224	53.551148	36.374880	-5.837451	83.200295	48.028120
0.165000	-4.179282	-4.936475	96.455532	0.056458	-0.149047	0.050501	19.714727	8.999431	-4.321821	-0.471834	29.906537	-31.671031	-49.531185	58.503997	5.334770	71.333333	44.395384	59.861534	6.241746	72.122519	45.456705	55.283040	-6.111247	78.464978	53.347017	36.128325	-5.813306	82.918278	47.949085
0.175000	-4.179282	-4.936475	96.455532	0.056301	-0.149135	0.050254	19.573363	8.982259	-4.029684	-0.600277	29.305770	-31.437804	-48.894613	58.142178	5.309522	71.277624	44.383727	59.638148	6.257040	72.085003	45.444046	55.031955	-6.088663	78.408705	53.177033	35.808991	-5.783465	82.690741	47.899410
0.185000	-4.179282	-4.936475	96.455532	0.056093	-0.149334	0.050034	19.375383	8.980174	-3.782059	-0.716685	28.680627	-31.238073	-48.257785	57.712351	5.285693	71.281130	44.427120	59.392977	6.273178	72.118114	45.483815	54.760560	-6.067843	78.429354	53.056444	35.429301	-5.752424	82.508342	47.870160
0.195000	-4.179282	-4.936475	96.455532	0.055841	-0.149584	0.049859	19.173778	8.989874	-3.588764	-0.803584	28.073961	-31.070405	-47.667768	57.236714	5.265842	71.351132	44.528507	59.141007	6.287378	72.218440	45.571199	54.481511	-6.050970	78.520638	52.999218	35.014229	-5.720947	82.362043	47.850540
0.205000	-4.179282	-4.936475	96.455532	0.055565	-0.149823	0.049733	19.016211	9.002549	-3.448366	-0.859674	27.514357	-30.929109	-47.154633	56.750833	5.250907	71.478357	44.679356	58.901311	6.297438	72.374697	45.694613	54.211272	-6.039237	78.664780	53.007305	34.591881	-5.687902	82.245842	47.831576
0.215000	-4.179282	-4.936475	96.455532	0.055292	-0.150014	0.049647	18.926638	9.009845	-3.348489	-0.896986	27.006737	-30.807460	-46.721833	56.290776	5.239466	71.637473	44.859955	58.688025	6.302834	72.570086	45.837974	53.962633	-6.032025	78.838317	53.066423	34.186329	-5.652478	82.155206	47.807517
0.225000	-4.179282	-4.936475	96.455532	0.055042	-0.150146	0.049582	18.902908	9.007531	-3.271837	-0.930396	26.538348	-30.700780	-46.353528	55.882518	5.228497	71.794156	45.044378	58.505947	6.304590	72.784453	45.984379	53.741211	-6.027216	79.016740	53.150988	33.814829	-5.615548	82.083837	47.775527
0.235000	-4.179282	-4.936475	96.455532	0.054827	-0.150230	0.049522	18.926299	8.996318	-3.204567	-0.967757	26.092962	-30.607417	-46.029715	55.536505	5.215413	71.917585	45.208944	58.351465	6.304286	72.996792	46.119885	53.546417	-6.022434	79.177835	53.234587	33.488244	-5.579601	82.021564	47.734713
0.245000	-4.179282	-4.936475	96.455532	0.054647	-0.150286	0.049456	18.974713	8.980536	-3.141710	-1.006675	25.661957	-30.527508	-45.737270	55.247673	5.199899	71.992916	45.340416	58.216160	6.303069	73.189202	46.236014	53.374139	-6.016322	79.305497	53.299169	33.211841	-5.547402	81.955575	47.685745
0.255000	-4.179282	-4.936475	96.455532	0.054497	-0.150333	0.049386	19.032052	8.965821	-3.086548	-1.038347	25.245152	-30.461110	-45.471444	54.999766	5.184066	72.027009	45.439911	58.090363	6.301332	73.351943	46.330508	53.218484	-6.008986	79.394325	53.338227	32.984779	-5.520293	81.875378	47.631717
0.265000	-4.179282	-4.936475	96.455532	0.054366	-0.150382	0.049319	19.090564	8.956901	-3.045178	-1.054586	24.843580	-30.407345	-45.231022	54.772210	5.170828	72.043888	45.520610	57.965763	6.299020	73.486945	46.406589	53.072482	-6.001433	79.452289	53.354163	32.799189	-5.497313	81.778842	47.579207
0.275000	-4.179282	-4.936475	96.455532	0.054246	-0.150439	0.049265	19.147782	8.956147	-3.020475	-1.053225	24.452931	-30.364988	-45.013826	54.547559	5.161850	72.072241	45.600531	57.837434	6.296060	73.606729	46.471078	52.929214	-5.994566	79.498185	53.353407	32.641062	-5.475734	81.674942	47.537591
0.285000	-4.179282	-4.936475	96.455532	0.054133	-0.150504	0.049226	19.202152	8.963171	-3.009286	-1.039105	24.064546	-30.333572	-44.816150	54.317197	5.156591	72.131844	45.694071	57.705251	6.292468	73.728319	46.531646	52.784007	-5.988559	79.553652	53.342671	32.494067	-5.452632	81.580448	47.515852
0.295000	-4.179282	-4.936475	96.455532	0.054027	-0.150573	0.049201	19.250861	8.975418	-3.003913	-1.021077	23.672856	-30.313604	-44.634808	54.083217	5.152970	72.225994	45.806322	57.573856	6.288158	73.865239	46.593719	52.636508	-5.983007	79.633686	53.327252	32.345052	-5.426513	81.511869	47.518447
